<svg width="455" height="416" viewBox="0 0 455 416" fill="none" xmlns="http://www.w3.org/2000/svg">
<path d="M132.911 28.6007C119.061 48.4543 135.301 80.6419 114.749 95.5735C94.7439 110.108 70.1679 86.2838 51.3141 98.7953C23.3456 117.355 28.4532 202.282 69.3447 255.049C81.6421 270.918 91.9174 277.092 96.4682 295.039C106.24 333.576 71.8965 356.5 78.4321 375.559C93.1479 418.474 319.466 454.485 410.275 325.511C452.686 265.275 459.032 178.293 421.138 112.23C352.666 -7.14436 163.989 -15.9472 132.911 28.6007Z" fill="#F2F4F4"/>
<path d="M290.021 359.258C318.394 359.45 354.566 355.641 389.209 339.951C398.051 335.947 452.667 311.21 446.217 286.302C443.945 277.529 436.014 276.143 432.771 264.466C428.929 250.629 437.604 243.717 443.618 226.472C447.206 216.182 457.707 186.068 439.689 169.395C428.922 159.432 408.459 154.718 392.883 158.359C370.036 163.7 362.181 185.968 349.542 223.875C338.337 257.479 341.216 265.728 332.726 289.785C326.425 307.639 314.561 332.221 290.021 359.258Z" fill="#B3CEE0"/>
<path opacity="0.5" d="M218.746 374.768C202.314 374.769 185.498 372.492 168.434 367.943L168.778 366.646C199.828 374.923 230.039 375.625 258.576 368.732C296.589 359.548 329.563 336.746 356.581 300.957C384.726 263.677 399.359 221.649 406.679 192.957C411.744 173.104 410.766 151.121 403.772 127.616L405.057 127.232C412.121 150.973 413.103 173.198 407.977 193.289C400.627 222.101 385.929 264.309 357.65 301.767C330.441 337.809 297.213 360.778 258.89 370.036C245.743 373.2 232.267 374.788 218.746 374.768Z" fill="white"/>
<path opacity="0.5" d="M387.501 250.288L387.122 249.819C387.043 249.72 379.072 239.776 372.634 224.598C366.686 210.572 360.855 189.066 366.86 166.265L368.155 166.607C357.518 206.998 384.295 243.908 387.795 248.498C447.853 209.345 447.258 164.608 445.637 151.801C445.592 151.451 445.569 151.231 445.57 151.15L446.241 151.157L446.91 151.151C446.913 151.225 446.935 151.387 446.966 151.632C448.618 164.673 449.246 210.302 388.007 249.96L387.501 250.288Z" fill="white"/>
<path opacity="0.5" d="M380.551 303.159C372.831 303.136 365.122 302.549 357.487 301.401L357.132 301.349L356.979 301.025C356.815 300.678 340.594 265.802 344.152 218.387L347.739 170.602L349.075 170.702L345.489 218.488C342.141 263.104 356.422 296.506 358.043 300.126C378.338 303.07 407.57 303.555 432.307 289.405C447.18 280.897 453.448 270.98 453.51 270.881L454.648 271.589C454.392 272.003 448.184 281.847 433.049 290.526C422.236 296.727 405.099 303.159 380.551 303.159Z" fill="white"/>
<path d="M261.884 282.533C239.594 303.48 208.213 326.98 169.352 339.964C159.434 343.278 98.1692 363.748 85.0554 339.325C80.4361 330.722 85.6926 323.814 79.7173 312.203C72.6369 298.446 60.7248 299.339 43.361 290.11C33.0001 284.604 2.67882 268.488 4.73087 242.099C5.95725 226.329 18.6883 207.604 33.6646 199.067C55.6315 186.545 78.1238 198.396 115.835 219.107C149.265 237.466 153.02 246.099 177.323 258.899C195.36 268.398 222.714 279.14 261.884 282.533Z" fill="#CFE0ED"/>
<path opacity="0.5" d="M244.131 300.384C225.144 300.384 205.459 297.521 185.076 291.795C136.466 278.115 96.4085 251.504 71.3647 231.589C53.9204 217.717 40.3219 198.036 30.9473 173.092L31.8962 172.734C41.2055 197.504 54.697 217.038 71.9957 230.794C96.9668 250.651 136.903 277.183 185.351 290.817C231.877 303.911 275.061 301.958 313.704 285.012C342.711 272.292 368.208 251.953 389.486 224.56L390.286 225.184C368.904 252.712 343.274 273.154 314.111 285.942C292.165 295.566 268.762 300.384 244.131 300.384Z" fill="white"/>
<path opacity="0.5" d="M109.732 267.741C43.0845 267.741 17.42 232.741 10.852 221.345C10.7104 221.1 10.6208 220.94 10.5762 220.878L11.38 220.259C11.5073 220.445 11.6244 220.638 11.7307 220.837C18.6963 232.923 47.4077 271.847 124.699 266.161C124.721 263.656 124.614 251.144 120.739 235.832C116.761 220.11 107.881 198.131 88.1719 182.704L88.7969 181.904C108.741 197.514 117.714 219.727 121.73 235.612C126.077 252.808 125.71 266.513 125.706 266.649L125.692 267.105L125.237 267.14C119.842 267.548 114.673 267.748 109.732 267.741Z" fill="white"/>
<path opacity="0.5" d="M173.761 302.498C97.5402 321.15 58.394 288.305 47.6934 277.111C47.4627 276.87 47.3155 276.712 47.2472 276.654L47.9933 275.721C48.191 275.898 48.3789 276.087 48.5562 276.284C59.9047 288.157 103.634 324.636 190.436 296.503C189.76 293.631 186.136 279.353 177.419 262.925C168.469 246.058 152.163 223.407 125.305 211.281L125.796 210.191C152.974 222.461 169.452 245.353 178.49 262.396C188.275 280.846 191.691 296.622 191.724 296.779L191.836 297.305L191.325 297.471C185.269 299.448 179.414 301.124 173.761 302.498Z" fill="white"/>
<path d="M285.862 299.464C269.383 289.282 246.833 271.888 232.502 243.716C213.708 206.768 225.563 183.745 210.296 117.817C200.643 76.1322 193.487 47.1383 169.204 35.7994C150.174 26.9138 122.905 29.9341 108.965 44.6064C97.3742 56.8062 93.6418 78.4898 94.172 93.3166C94.6041 105.4 97.8903 113.568 92.4135 121.096C86.8163 128.79 78.6691 126.741 73.1869 132.712C62.0689 144.82 75.9829 174.587 78.2317 179.398C103.247 232.914 162.754 260.316 188.856 271.957C210.437 281.581 243.235 293.583 285.862 299.464Z" fill="#FEB58A"/>
<path opacity="0.5" d="M303.8 306.56C277.816 302.298 254.832 295.582 235.486 286.597C206.855 273.3 187.058 255.356 176.646 233.264C168.504 215.985 166.146 195.937 163.161 170.555C160.687 149.514 160.829 134.391 160.954 121.048C161.116 103.749 161.244 90.0862 155.459 71.5444C149.58 52.7071 139.353 34.8686 125.062 18.5245L125.825 17.8555C140.21 34.3066 150.506 52.2683 156.427 71.2415C162.26 89.9358 162.131 103.67 161.968 121.057C161.844 134.37 161.702 149.459 164.169 170.436C167.259 196.715 169.491 215.702 177.564 232.831C187.872 254.702 207.503 272.481 235.913 285.676C255.175 294.622 278.071 301.311 303.965 305.557L303.8 306.56Z" fill="white"/>
<path opacity="0.5" d="M162.022 155.613L161.752 155.107C143 119.933 118.232 100.583 100.757 90.5437C81.838 79.675 67.1886 77.0872 67.043 77.0623L67.2133 76.061C67.3609 76.0863 82.1882 78.7051 101.262 89.6628C118.767 99.7188 143.538 119.052 162.37 154.112C164.713 152.347 175.524 143.758 185.061 128.855C194.936 113.423 205.426 87.8608 199.322 53.722L200.32 53.543C206.485 88.0252 195.877 113.848 185.892 129.439C175.073 146.332 162.615 155.196 162.491 155.284L162.022 155.613Z" fill="white"/>
<path opacity="0.5" d="M170.2 212.121L169.833 212.09C145.846 210.051 116.365 183.899 95.8578 162.318C73.6806 138.981 56.9262 115.822 56.7598 115.59L57.5819 114.996C57.7484 115.227 74.4686 138.338 96.6002 161.626C116.88 182.966 145.952 208.8 169.554 211.045C170.81 208.129 180.017 187.143 193.106 167.74C207.203 146.844 246.998 132.507 247.399 132.365L247.738 133.322C247.341 133.463 207.856 147.69 193.947 168.309C179.969 189.028 170.438 211.556 170.343 211.781L170.2 212.121Z" fill="white"/>
<g style="mix-blend-mode:soft-light" opacity="0.5">
<g style="mix-blend-mode:soft-light" opacity="0.5">
<path d="M227.111 256.991C214.583 256.967 202.072 256.108 189.659 254.42C163.261 250.839 124.751 241.67 91.1994 218.328L26.4082 173.255L26.9867 172.421L91.7779 217.494C125.156 240.715 163.489 249.842 189.769 253.41C214.719 256.798 233.819 255.954 238.321 255.68C230.46 246.465 226.174 236.046 225.582 224.696C225.095 215.376 227.085 205.42 231.496 195.104C238.991 177.577 251.065 164.896 251.186 164.77L251.917 165.474C251.797 165.599 239.836 178.166 232.418 195.528C228.073 205.697 226.115 215.497 226.595 224.657C227.196 236.086 231.623 246.558 239.753 255.782L240.421 256.541L239.414 256.624C239.318 256.632 234.784 256.991 227.111 256.991Z" fill="white"/>
</g>
</g>
<path d="M287.518 292.765C285.677 290.259 274.6 275.655 257.07 275.047C242.394 274.538 231.171 284.114 228.571 286.332C218.102 295.265 219.312 302.39 210.856 305.282C200.815 308.716 193.609 300.551 187.115 305.265C182.635 308.517 181.323 315.845 183.139 320.955C186.327 329.924 199.912 334.198 210.215 332.054C224.409 329.1 224.729 315.552 240.845 311.2C250.211 308.671 252.939 312.48 262.901 310.037C274.469 307.199 282.497 299.19 287.518 292.765Z" fill="url(#paint0_linear_85_1544)"/>
<g style="mix-blend-mode:soft-light" opacity="0.5">
<g style="mix-blend-mode:soft-light" opacity="0.5">
<path d="M206.893 318.787C198.185 318.787 187.582 314.437 175.233 305.78L175.525 305.364C192.067 316.961 205.408 320.775 215.177 316.701C221.334 314.133 224.385 309.292 227.614 304.167C231.248 298.4 235.005 292.436 243.532 289.589C250.089 287.401 257.683 288.448 272.813 290.536C280.382 291.581 287.881 293.082 295.27 295.03L295.14 295.521C287.772 293.578 280.293 292.082 272.745 291.039C257.692 288.962 250.137 287.92 243.692 290.071C235.337 292.86 231.629 298.746 228.043 304.438C224.769 309.633 221.677 314.54 215.372 317.169C212.785 318.248 209.959 318.787 206.893 318.787Z" fill="white"/>
</g>
<g style="mix-blend-mode:soft-light" opacity="0.5">
<path d="M189.566 333.487L189.451 332.992C207.422 328.815 212.299 318.694 212.733 317.711C211.12 312.151 206.413 307.451 202.738 304.482C200.315 302.521 197.724 300.78 194.995 299.276L195.229 298.826C195.378 298.904 210.138 306.715 213.245 317.658L213.269 317.74L213.238 317.82C213.194 317.932 208.626 329.057 189.566 333.487Z" fill="white"/>
</g>
<g style="mix-blend-mode:soft-light" opacity="0.5">
<path d="M230.463 327.663C228.656 322.224 230.289 314.174 235.315 303.737C237.65 298.94 240.309 294.309 243.273 289.876C235.156 283.254 215.309 298.978 215.108 299.139L214.792 298.742C214.843 298.701 219.983 294.609 226.068 291.454C234.309 287.182 240.267 286.571 243.779 289.638L243.95 289.788L243.82 289.975C243.649 290.221 226.729 314.814 230.945 327.503L230.463 327.663Z" fill="white"/>
</g>
<g style="mix-blend-mode:soft-light" opacity="0.5">
<path d="M248.049 320.076C243.269 301.706 267.862 291.57 270.798 290.433C262.362 275.866 241.293 273.109 241.079 273.082L241.142 272.578C241.358 272.605 262.926 275.429 271.386 290.441L271.534 290.703L271.251 290.804C270.974 290.904 243.6 300.966 248.539 319.948L248.049 320.076Z" fill="white"/>
</g>
</g>
<path d="M369.087 54.1501C366.339 45.2425 362.047 40.9348 358.777 38.6577C351.771 33.7791 342.275 33.2216 342.54 31.3523C342.654 30.5419 344.532 29.9889 345.095 29.8235C347.843 29.0142 349.382 30.4046 350.912 29.4894C352.052 28.807 352.362 27.337 352.588 26.1859C353.734 20.3595 350.375 13.1895 348.59 7.93238C348.466 7.56597 348.186 6.72033 348.461 6.51978C348.758 6.30349 349.549 6.94814 349.815 7.16565C352.656 9.48234 356.202 19.8246 356.198 19.8257C356.197 19.8261 356.203 18.6401 355.135 15.266C353.273 9.38725 351.25 6.65967 351.427 1.99623C351.462 1.08537 351.499 0.266139 351.814 0.17274C353.408 -0.299948 359.136 18.6986 360.195 18.3479C360.461 18.2599 360.312 16.9928 360.238 16.3619C359.549 10.4696 356.31 8.70975 356.585 3.94744C356.628 3.19807 356.692 2.10483 357.101 1.98917C358.475 1.60093 362.122 12.7054 363.932 17.785C367.676 28.3269 370.686 39.1155 372.942 50.0736C371.657 51.4324 370.372 52.7913 369.087 54.1501Z" fill="#FEB3B1"/>
<path d="M251.982 39.765C246.915 38.1801 245.555 32.3076 245.018 29.9865C243.748 24.4991 244.241 15.0253 249.981 12.3986C254.592 10.2885 259.744 13.9 260.382 14.3614C266.879 19.0552 265.659 28.0465 265.516 28.9872C265.196 31.0949 264.535 35.4437 260.716 38.1467C260.446 38.3375 256.364 41.1356 251.982 39.765Z" fill="#424242"/>
<g style="mix-blend-mode:multiply" opacity="0.3">
<path style="mix-blend-mode:multiply" opacity="0.3" d="M258.696 26.2592C255.337 22.9263 250.589 24.3851 248.587 21.3517C247.588 19.8369 247.331 17.2816 249.348 12.7324C244.209 15.747 243.797 24.7088 245.019 29.9864C245.556 32.3074 246.915 38.18 251.982 39.7648C256.364 41.1355 260.447 38.3374 260.716 38.1466C260.884 38.0278 261.043 37.9049 261.199 37.7802C261.759 33.4177 261.439 28.9815 258.696 26.2592Z" fill="url(#paint1_linear_85_1544)"/>
</g>
<path d="M247.976 156.541C247.976 156.541 227.584 93.0346 227.653 69.1422C227.721 45.2498 248.534 35.9641 257.775 33.7556C267.011 31.5482 286.604 33.9765 292.635 60.8737C298.664 87.7624 294.312 148.049 294.312 148.049L247.976 156.541Z" fill="#424242"/>
<g style="mix-blend-mode:soft-light" opacity="0.3">
<path d="M264.906 92.6022C279.598 90.8033 282.854 76.914 296.36 75.308C297.822 75.1346 299.299 75.1201 300.765 75.2647C300.562 72.6303 300.31 70.0964 300.001 67.7009C298.362 67.4961 296.705 67.4905 295.065 67.6841C281.558 69.2875 278.302 83.1765 263.609 84.9726C251.625 86.4376 246.279 78.12 236.139 81.7394C233.527 82.6718 231.32 84.1396 229.46 85.8385C229.882 88.2532 230.369 90.7644 230.908 93.3387C232.805 91.6031 235.023 90.2563 237.438 89.3745C247.577 85.7533 252.923 94.0695 264.906 92.6022Z" fill="#37383A"/>
</g>
<path style="mix-blend-mode:multiply" opacity="0.8" d="M266.16 116.949C255.171 118.208 250.145 109.826 240.88 113.264C239.196 113.899 237.627 114.806 236.236 115.95C241.785 137.262 247.975 156.542 247.975 156.542L294.311 148.05C294.311 148.05 296.016 124.425 295.813 100.16C295.473 100.178 295.142 100.205 294.823 100.241C282.435 101.613 279.634 115.405 266.16 116.949Z" fill="#979797"/>
<path style="mix-blend-mode:multiply" opacity="0.3" d="M290.794 76.5123C278.403 77.8767 275.602 91.6689 262.126 93.2043C251.134 94.4566 246.107 86.071 236.84 89.5034C234.516 90.3641 232.552 91.7366 230.895 93.341C232.394 100.623 234.275 108.413 236.237 115.95C237.628 114.806 239.197 113.899 240.881 113.264C250.146 109.827 255.172 118.208 266.161 116.949C279.635 115.405 282.436 101.613 294.824 100.241C295.143 100.206 291.994 76.3802 290.794 76.5123Z" fill="#515356"/>
<path d="M185.775 201.55C176.834 189.887 189.136 163.483 202.64 148.606C218.35 131.299 238.462 126.535 251.223 123.691C293.46 114.278 307.011 133.411 328.33 122.436C361.401 105.413 354.144 46.2472 369.087 44.6124C381.358 43.2699 400.691 81.6009 395.353 119.613C391.211 149.109 363.195 178.123 334.911 191.041C314.391 200.413 317.507 197.925 270.784 200.627C216.625 203.76 194.588 213.047 185.775 201.55Z" fill="#EE6E23"/>
<path d="M236.554 127.36C245.223 124.233 259.396 123.526 259.247 92.508C259.247 92.508 277.203 91.3708 277.884 91.5959C278.527 91.8087 273.127 122.578 298.22 122.368C299.926 122.354 300.374 124.755 299.004 125.842C294.467 129.442 284.233 135.016 269.079 135.192C259.486 135.304 248.544 137.457 236.503 131.11C234.854 130.241 234.735 128.016 236.554 127.36Z" fill="#FEAEAB"/>
<path d="M297.991 186.008C292.91 186.072 294.672 143.08 279.472 79.9645C276.32 66.8723 273.228 56.1983 271.04 49.0284C276.443 48.3358 281.844 47.6434 287.244 46.9512C296.63 65.0131 310.608 98.6222 307.947 142.172C306.696 162.649 301.728 185.961 297.991 186.008Z" fill="url(#paint2_linear_85_1544)"/>
<path d="M297.991 186.008C292.91 186.072 294.672 143.08 279.472 79.9645C276.32 66.8723 273.228 56.1983 271.04 49.0284C276.443 48.3358 281.844 47.6434 287.244 46.9512C296.63 65.0131 310.608 98.6222 307.947 142.172C306.696 162.649 301.728 185.961 297.991 186.008Z" fill="#424242"/>
<path d="M241.566 74.2804C242.254 78.3233 245.431 108.317 268.27 103.36C289.128 98.8329 283.637 77.6274 281.186 66.9168C281.186 66.9168 278.578 57.3795 271.081 56.1289C271.081 56.1289 278.531 60.2917 280.475 72.3497C280.475 72.3497 277.764 66.2795 262.425 69.3713C247.074 72.4655 245.04 80.0146 245.04 80.0146C245.04 80.0146 240.363 69.0033 247.132 61.298C247.132 61.298 241.895 64.1923 241.566 74.2804Z" fill="#FC9F9D"/>
<g style="mix-blend-mode:multiply" opacity="0.3">
<path style="mix-blend-mode:multiply" opacity="0.3" d="M390.324 71.3496C393.185 87.9729 390.116 98.7098 385.642 105.937C375.566 122.212 357.752 121.713 335.821 147.402C323.543 161.782 322.748 169.41 315.116 180.443C311.612 185.509 307.035 190.761 300.92 195.829C317.406 196.288 320.594 197.579 334.911 191.04C363.195 178.122 391.211 149.108 395.353 119.612C397.778 102.339 395.109 85.0018 390.324 71.3496Z" fill="#848484"/>
</g>
<path d="M395.628 198.95L107.866 189.01C106.424 188.961 104.987 189.202 103.641 189.72C102.294 190.238 101.066 191.022 100.029 192.025C98.9913 193.029 98.1663 194.231 97.6028 195.561C97.0394 196.89 96.749 198.32 96.749 199.764V385.471C96.749 386.952 97.0543 388.417 97.6457 389.775C98.2372 391.132 99.102 392.352 100.186 393.359C101.27 394.367 102.551 395.139 103.947 395.628C105.342 396.117 106.824 396.312 108.299 396.201L396.062 374.584C398.765 374.38 401.292 373.162 403.136 371.172C404.979 369.182 406.004 366.568 406.004 363.854V209.704C406.004 206.915 404.922 204.234 402.986 202.228C401.051 200.222 398.413 199.046 395.628 198.95Z" fill="#737373"/>
<path d="M400.575 198.95L112.812 189.01C111.37 188.961 109.933 189.202 108.587 189.72C107.241 190.238 106.012 191.022 104.975 192.025C103.938 193.029 103.113 194.231 102.549 195.561C101.986 196.89 101.695 198.32 101.695 199.764V385.471C101.695 386.952 102.001 388.417 102.592 389.774C103.183 391.132 104.048 392.352 105.133 393.359C106.217 394.367 107.497 395.139 108.893 395.628C110.289 396.117 111.771 396.312 113.245 396.201L401.008 374.584C403.711 374.38 406.238 373.162 408.082 371.172C409.926 369.182 410.95 366.568 410.95 363.853V209.704C410.95 206.914 409.868 204.234 407.933 202.228C405.997 200.222 403.359 199.046 400.575 198.95Z" fill="url(#paint3_linear_85_1544)"/>
<path d="M287.597 302.22L408.175 202.504C407.213 201.43 406.043 200.562 404.737 199.951C403.431 199.341 402.015 199 400.575 198.951L112.812 189.011C110.187 188.917 107.619 189.793 105.598 191.473L266.792 303.108C269.884 305.249 273.589 306.321 277.344 306.16C281.099 306 284.699 304.616 287.597 302.22Z" fill="#8A8A8A"/>
<path d="M287.597 302.22C284.699 304.616 281.099 306 277.344 306.16C273.588 306.321 269.883 305.249 266.792 303.108L105.597 191.473C104.376 192.48 103.392 193.747 102.718 195.18C102.043 196.614 101.694 198.18 101.695 199.764V385.472C101.695 386.953 102.001 388.418 102.592 389.775C103.183 391.132 104.048 392.353 105.133 393.36C106.217 394.367 107.497 395.139 108.893 395.628C110.289 396.117 111.771 396.313 113.245 396.202L401.008 374.584C403.711 374.381 406.238 373.162 408.082 371.172C409.926 369.182 410.95 366.568 410.95 363.854V209.704C410.951 207.042 409.961 204.476 408.175 202.504L287.597 302.22Z" fill="#D2D2D2"/>
<g opacity="0.37">
<path d="M408.175 202.504L287.597 302.22C284.699 304.616 281.099 306 277.344 306.16C273.588 306.321 269.883 305.249 266.792 303.108L105.597 191.473C104.376 192.48 103.392 193.747 102.718 195.18C102.043 196.614 101.694 198.18 101.695 199.764V227.153C107.519 224.702 112.447 224.231 116.453 224.567C127.527 225.493 130.172 232.415 151.377 242.408C171.204 251.752 173.284 247.77 182.024 254.541C198.863 267.586 191.499 282.642 206.257 296.647C221.625 311.231 234.885 299.911 256.861 313.775C280.083 328.426 272.649 345.718 291.785 355.882C318.594 370.121 345.971 342.97 368.76 357.309C375.65 361.644 380.056 368.477 382.896 375.945L401.008 374.584C403.711 374.381 406.238 373.162 408.082 371.172C409.926 369.182 410.95 366.568 410.95 363.854V209.704C410.951 207.042 409.961 204.476 408.175 202.504Z" fill="white" fill-opacity="0.78" style="mix-blend-mode:multiply"/>
</g>
<path style="mix-blend-mode:multiply" opacity="0.3" d="M131.1 227.047V394.861L150.986 412.979L188.288 383.072L131.1 227.047Z" fill="#393939"/>
<path d="M228.297 230.44L245.473 403.415C245.729 405.991 243.958 408.243 241.531 408.42L157.842 415.439C152.74 415.619 149.987 412.867 149.71 410.141L131.1 227.046C130.82 224.295 133.369 221.861 138.523 221.966L223.352 225.547C225.817 225.64 228.039 227.842 228.297 230.44Z" fill="#212121"/>
<path d="M232.102 230.221L249.35 404.088C249.607 406.677 247.829 408.941 245.392 409.12L158.628 415.488C155.919 415.687 153.468 413.608 153.19 410.868L134.497 226.803C134.216 224.037 136.244 221.86 138.997 221.965L227.136 225.303C229.611 225.396 231.843 227.61 232.102 230.221Z" fill="#494949"/>
<path d="M230.275 239.814L246.273 400.963C246.513 403.382 244.848 405.494 242.568 405.656L160.96 411.464C158.441 411.644 156.163 409.703 155.904 407.152L138.65 237.138C138.389 234.565 140.273 232.526 142.829 232.608L225.633 235.247C227.947 235.32 230.033 237.376 230.275 239.814Z" fill="#FFEDD8"/>
<path d="M186.383 229.156C186.476 230.086 185.821 230.815 184.917 230.785C184.013 230.754 183.204 229.974 183.11 229.042C183.017 228.11 183.675 227.381 184.579 227.413C185.482 227.445 186.29 228.226 186.383 229.156Z" fill="white"/>
<path d="M178.657 275.967C168.902 281.049 164.726 292.35 169.329 301.207C173.932 310.065 185.571 313.125 195.326 308.043L178.657 275.967Z" fill="#EE6E23"/>
<path d="M195.326 308.042L178.657 275.966C180.838 274.83 183.381 274.607 185.726 275.348C188.071 276.089 190.026 277.732 191.161 279.916L199.271 295.522C199.833 296.603 200.176 297.785 200.282 299C200.388 300.214 200.254 301.438 199.888 302.6C199.522 303.763 198.93 304.842 198.148 305.775C197.365 306.709 196.406 307.479 195.326 308.042Z" fill="#EE6E23"/>
<path d="M202.304 322.494C192.549 327.577 188.373 338.877 192.976 347.735C197.579 356.592 209.218 359.653 218.973 354.57L202.304 322.494Z" fill="#EE6E23"/>
<path d="M218.973 354.572L202.304 322.495C203.384 321.933 204.564 321.589 205.777 321.482C206.99 321.376 208.211 321.511 209.372 321.877C210.534 322.244 211.611 322.836 212.544 323.62C213.476 324.404 214.245 325.364 214.807 326.445L222.917 342.051C224.052 344.235 224.274 346.781 223.535 349.129C222.795 351.477 221.154 353.435 218.973 354.572Z" fill="#EE6E23"/>
<path d="M204.859 344.77L194.715 350.055C181.75 337.416 172.99 320.559 168.434 299.483L178.579 294.197L204.859 344.77Z" fill="#EE6E23"/>
<g style="mix-blend-mode:soft-light" opacity="0.3">
<path d="M178.35 314.025C169.727 288.513 184.736 275.66 176.236 252.03C171.611 239.173 162.354 229.596 152.17 222.463L138.997 221.965C136.244 221.86 134.216 224.037 134.497 226.802L153.19 410.868C153.468 413.608 155.919 415.687 158.627 415.488L233.536 409.99C233.301 390.771 228.425 377.092 223.002 367.369C208.099 340.649 187.278 340.442 178.35 314.025Z" fill="black"/>
</g>
<defs>
<linearGradient id="paint0_linear_85_1544" x1="109888" y1="122855" x2="187544" y2="122855" gradientUnits="userSpaceOnUse">
<stop stop-color="#FF9085"/>
<stop offset="1" stop-color="#FB6FBB"/>
</linearGradient>
<linearGradient id="paint1_linear_85_1544" x1="27582.8" y1="-13538.2" x2="25644.5" y2="-12031.4" gradientUnits="userSpaceOnUse">
<stop stop-color="#444B8C"/>
<stop offset="0.9964" stop-color="#3E4177"/>
</linearGradient>
<linearGradient id="paint2_linear_85_1544" x1="68922.3" y1="-38957.4" x2="29691" y2="-11091.5" gradientUnits="userSpaceOnUse">
<stop stop-color="#444B8C"/>
<stop offset="0.9964" stop-color="#3E4177"/>
</linearGradient>
<linearGradient id="paint3_linear_85_1544" x1="422747" y1="342471" x2="536938" y2="719893" gradientUnits="userSpaceOnUse">
<stop stop-color="#FFC444"/>
<stop offset="0.9964" stop-color="#F36F56"/>
</linearGradient>
</defs>
</svg>
