<svg width="108" height="35" viewBox="0 0 108 35" fill="none" xmlns="http://www.w3.org/2000/svg">
<path d="M30.1064 24.85C30.1064 27.6569 29.1877 30.008 27.3502 31.9035C25.5146 33.7984 23.2315 34.7461 20.5007 34.7468H12.4517V21.3165H17.6471V29.8539H20.5007C21.876 29.8539 22.9966 29.3962 23.8624 28.481C24.7296 27.5689 25.1626 26.3586 25.1613 24.85C25.1613 23.3414 24.7283 22.1298 23.8624 21.2152C22.9972 20.3013 21.8766 19.8443 20.5007 19.8443H9.59807C8.07159 19.8669 6.56211 19.5212 5.19722 18.8366C5.10935 18.7926 5.02148 18.7448 4.93554 18.697C4.12697 18.2435 3.38997 17.6727 2.74852 17.003C1.00697 15.2206 0.0220231 12.8327 0 10.3395L0 9.57267C0.0764283 6.9283 0.992629 4.70142 2.7486 2.89203C4.58414 0.99723 6.8673 0.0494953 9.59807 0.0488281H17.6471V13.481H12.4517V4.94177H9.59807C8.22283 4.94177 7.10226 5.39875 6.23639 6.3127C5.36921 7.22671 4.93562 8.43767 4.93562 9.94559C4.93562 11.4561 5.36921 12.6677 6.23639 13.5804C7.10163 14.4944 8.22219 14.952 9.59807 14.9533H20.5007C23.2321 14.9533 25.5153 15.8997 27.3502 17.7927C29.1877 19.6875 30.1064 22.04 30.1064 24.85Z" fill="#4A4A4A"/>
<path d="M48.7824 0H44.1388L39.2183 14.9261H43.3507L43.9897 12.7724H48.9527L49.5918 14.9261H53.7029L48.7824 0ZM44.9695 9.4888L46.4606 4.41394L47.9729 9.4888H44.9695Z" fill="#E97522"/>
<path d="M60.8599 1.24557e-08H54.7891V9.90914H58.7084V3.68889H60.8599C61.3314 3.67211 61.8011 3.75561 62.2381 3.93388C62.675 4.11216 63.0692 4.38115 63.3947 4.72312C64.0476 5.41269 64.3742 6.32601 64.3745 7.46306C64.3745 8.60042 64.0479 9.51373 63.3947 10.203C63.0692 10.545 62.675 10.814 62.2381 10.9923C61.8012 11.1706 61.3314 11.2541 60.8599 11.2372H54.7891V14.9261H60.8599C62.9186 14.9261 64.6404 14.2118 66.0252 12.7831C67.41 11.3545 68.1023 9.58111 68.1021 7.46306C68.1021 5.34512 67.4098 3.57176 66.0252 2.14299C64.6406 0.714222 62.9189 -0.000108915 60.8599 1.24557e-08Z" fill="#E97522"/>
<path d="M75.9404 1.24557e-08H69.8696V3.68889H75.9404C76.412 3.67211 76.8817 3.75561 77.3186 3.93388C77.7556 4.11215 78.1498 4.38115 78.4752 4.72312C79.1282 5.41275 79.4548 6.32606 79.455 7.46306C79.455 8.60042 79.1284 9.51373 78.4752 10.203C78.1498 10.545 77.7556 10.814 77.3187 10.9923C76.8817 11.1706 76.412 11.254 75.9404 11.2372H73.789V5.01698H69.8696V14.9261H75.9404C77.9992 14.9261 79.7209 14.2118 81.1057 12.7831C82.4906 11.3545 83.1828 9.58111 83.1826 7.46306C83.1826 5.34512 82.4903 3.57176 81.1057 2.14299C79.7212 0.714222 77.9994 -0.000108915 75.9404 1.24557e-08Z" fill="#E97522"/>
<path d="M45.012 19.7538C45.7099 19.7354 46.4045 19.8559 47.0554 20.1085C47.7063 20.3611 48.3006 20.7406 48.8038 21.225C49.8261 22.2061 50.3373 23.4571 50.3374 24.9781C50.3374 26.4994 49.8262 27.7503 48.8038 28.7308C48.3006 29.2153 47.7064 29.5949 47.0554 29.8475C46.4045 30.1001 45.7099 30.2206 45.012 30.2021H43.0309V34.6801H39.2183V19.7538H45.012ZM45.012 26.5772C45.2126 26.5815 45.4118 26.5439 45.597 26.4668C45.7822 26.3897 45.9493 26.2747 46.0877 26.1294C46.2338 25.9765 46.3478 25.7959 46.4229 25.5981C46.4979 25.4003 46.5325 25.1895 46.5246 24.9781C46.5332 24.7682 46.4989 24.5588 46.4237 24.3626C46.3486 24.1664 46.2343 23.9877 46.0877 23.8373C45.9477 23.6948 45.7801 23.5824 45.5951 23.5072C45.4101 23.432 45.2116 23.3955 45.012 23.4H43.0309V26.5772H45.012Z" fill="#B1B1B1"/>
<path d="M59.8377 19.7539H63.6291V34.6803H59.8377V28.9444H55.6411V34.6803H51.8284V19.7539H55.6411V25.2765H59.8377V19.7539Z" fill="#B1B1B1"/>
<path d="M78.785 32.75C77.2973 34.1927 75.3073 34.9994 73.236 34.9994C71.1648 34.9994 69.1748 34.1927 67.6871 32.75C66.9492 32.0334 66.3669 31.1721 65.9766 30.22C65.5862 29.2679 65.3962 28.2454 65.4185 27.2165C65.3963 26.1876 65.5863 25.1651 65.9766 24.213C66.367 23.2609 66.9493 22.3996 67.6871 21.683C69.1748 20.2403 71.1648 19.4336 73.236 19.4336C75.3073 19.4336 77.2973 20.2403 78.785 21.683C79.5228 22.3997 80.105 23.261 80.4953 24.2131C80.8857 25.1652 81.0757 26.1876 81.0535 27.2165C81.0757 28.2454 80.8857 29.2678 80.4954 30.2199C80.1051 31.172 79.5228 32.0333 78.785 32.75ZM70.3603 30.1272C71.037 30.8493 71.9441 31.3125 72.9253 31.437C73.9065 31.5616 74.9003 31.3396 75.7356 30.8094C76.5709 30.2792 77.1953 29.474 77.5013 28.5325C77.8072 27.5909 77.7755 26.5721 77.4116 25.6514C77.0478 24.7308 76.3746 23.966 75.5079 23.4889C74.6413 23.0117 73.6356 22.8521 72.664 23.0375C71.6925 23.2229 70.8159 23.7417 70.1854 24.5045C69.5549 25.2673 69.21 26.2264 69.2099 27.2165C69.192 27.7547 69.2848 28.2909 69.4827 28.7916C69.6806 29.2924 69.9793 29.747 70.3603 30.1272Z" fill="#B1B1B1"/>
<path d="M92.3007 19.7539V23.4427H88.6154V34.6803H84.8027V23.4427H81.1174V19.7539H92.3007Z" fill="#B1B1B1"/>
<path d="M105.732 32.75C104.244 34.1927 102.254 34.9994 100.183 34.9994C98.1113 34.9994 96.1213 34.1927 94.6337 32.75C93.8958 32.0334 93.3134 31.1721 92.9231 30.22C92.5327 29.2679 92.3428 28.2454 92.365 27.2165C92.3428 26.1876 92.5328 25.1651 92.9232 24.213C93.3135 23.2609 93.8958 22.3996 94.6336 21.683C96.1213 20.2403 98.1113 19.4336 100.183 19.4336C102.254 19.4336 104.244 20.2403 105.731 21.683C106.469 22.3997 107.052 23.261 107.442 24.2131C107.832 25.1652 108.022 26.1876 108 27.2165C108.022 28.2454 107.832 29.2678 107.442 30.2199C107.052 31.172 106.469 32.0333 105.732 32.75ZM97.3068 30.1272C97.9835 30.8493 98.8906 31.3125 99.8718 31.437C100.853 31.5616 101.847 31.3396 102.682 30.8094C103.517 30.2792 104.142 29.474 104.448 28.5325C104.754 27.5909 104.722 26.5721 104.358 25.6514C103.994 24.7308 103.321 23.966 102.454 23.4889C101.588 23.0117 100.582 22.8521 99.6106 23.0375C98.639 23.2229 97.7625 23.7417 97.132 24.5045C96.5015 25.2673 96.1565 26.2264 96.1565 27.2165C96.1385 27.7547 96.2313 28.2909 96.4293 28.7916C96.6272 29.2924 96.9259 29.747 97.3068 30.1272Z" fill="#B1B1B1"/>
</svg>
